<?xml version="1.0" encoding="utf-8"?>
<!-- Generator: Adobe Illustrator 13.0.0, SVG Export Plug-In . SVG Version: 6.00 Build 14576)  -->
<!DOCTYPE svg PUBLIC "-//W3C//DTD SVG 1.1//EN" "http://www.w3.org/Graphics/SVG/1.1/DTD/svg11.dtd">
<svg version="1.1" xmlns="http://www.w3.org/2000/svg" xmlns:xlink="http://www.w3.org/1999/xlink" x="0px" y="0px"
	 width="317.323px" height="228.185px" viewBox="0 0 317.323 228.185" enable-background="new 0 0 317.323 228.185"
	 xml:space="preserve">
<g id="background">
</g>
<g id="Layer_1">
	<g>
		<linearGradient id="SVGID_1_" gradientUnits="userSpaceOnUse" x1="173.436" y1="93.0747" x2="149.8224" y2="141.9886">
			<stop  offset="0" style="stop-color:#B2B1B1"/>
			<stop  offset="0.1776" style="stop-color:#ADACAC"/>
			<stop  offset="0.382" style="stop-color:#9F9E9E"/>
			<stop  offset="0.5996" style="stop-color:#888888"/>
			<stop  offset="0.825" style="stop-color:#686868"/>
			<stop  offset="1" style="stop-color:#4A4A4A"/>
		</linearGradient>
		<path fill="url(#SVGID_1_)" d="M316.961,196.298c-1.802-9.699-9.682-14.812-10.573-15.362l-0.062-0.044l-171.55-97.753
			l-0.102-0.056c-0.658-0.34-16.054-8.587-17.143-34.084c-0.688-16.098-7.539-27.267-13.168-33.802
			C100.081,10.227,93.675,4.95,90.056,4.064l0.051,0.008l-0.708-0.313c-2.837-1.272-9.473-4.252-21.177-3.688
			C51.297,0.891,40.52,5.067,31.007,8.752c-3.098,1.2-6.023,2.335-8.936,3.249c-6.08,1.917-10.051,4.743-11.804,8.401
			c-0.728,1.521-0.949,2.926-0.949,4.063c0,1.434,0.351,2.448,0.467,2.747l0.833,2.133l2.238,0.464
			c33.315,6.902,44.203,9.067,47.934,9.747c0.648,1.959,2.098,6.085,3.746,8.802c0.682,1.125,0.936,1.82,1.03,2.147
			c-0.396,2.003-1.618,8.134-3.065,15.444l-7.758,3.958l-0.234-0.368l-1.787-0.345c-14.46-2.782-38.037-7.39-40.426-8.032
			c-5.082-2.253-8.627-2.327-10.812-0.191c-1.513,1.478-1.901,3.672-1.014,5.739c13.131,30.554,41.523,38.039,53.116,39.842
			l0.253,0.041c1.219,0.194,2.26,0.145,3.15-0.033c0.493,0.651,1.068,1.11,1.628,1.424c0.523,0.292,1.173,0.465,1.85,0.555
			c1.69,0.337,40.336,8.013,44.148,8.586c2.313,0.346,3.408,1.182,3.454,1.218c0.068,0.054,0.133,0.113,0.133,0.113l0.334,0.225
			c0,0,163.708,102.973,163.773,103.013c7.995,5.865,25.877,12.488,38.004-3.469C316.031,210.703,318.267,203.326,316.961,196.298z
			 M279.647,202.22c0-6.355,5.171-11.523,11.526-11.523c8.394,0,9.299,7.468,9.299,10.682c0,4.41-5.244,10.684-10.143,10.684
			C283.74,212.062,279.647,208.292,279.647,202.22z M96.791,98.219c-2.478-0.555-11.917-2.679-14.274-3.211
			c0.575-2.716,5.453-25.714,6.099-28.755c2.604,0.652,12.052,3.015,14.29,3.569C102.345,72.422,97.406,95.351,96.791,98.219z"/>
		
			<rect x="80.666" y="62.62" transform="matrix(0.975 0.2222 -0.2222 0.975 20.4433 -18.517)" opacity="0.7" fill="#404040" width="23.705" height="37.959"/>
		<path fill="#666667" d="M275.587,203.72c0,0,9.36,4.502,16.65,0.368c5.468-3.103,7.549-9.238,5.581-16.93
			c0,0,6.87,2.866,6.87,13.374c0,10.509-10.701,14.122-14.359,14.899C286.673,216.211,276.729,213.382,275.587,203.72z"/>
		<linearGradient id="SVGID_2_" gradientUnits="userSpaceOnUse" x1="217.0405" y1="129.4526" x2="213.6675" y2="136.1987">
			<stop  offset="0" style="stop-color:#8C8B8C"/>
			<stop  offset="0.3122" style="stop-color:#878687"/>
			<stop  offset="0.6708" style="stop-color:#79797A"/>
			<stop  offset="1" style="stop-color:#666667"/>
		</linearGradient>
		<path fill="url(#SVGID_2_)" d="M299.606,176.217L115.196,76L304.17,183.677c0,0,6.893,4.738,6.893,14.873
			C311.063,198.55,315.526,184.996,299.606,176.217z"/>
		<path fill="#DFDFDC" d="M289.513,185.718c-0.554-0.052-1.123-0.085-1.708-0.085c-8.698,0-15.746,7.045-15.746,15.74
			c0,8.693,6.206,14.056,14.899,14.056c0.47,0,0.938-0.038,1.407-0.105c-7.646-0.757-12.931-5.928-12.931-13.95
			C275.435,193.242,281.598,186.552,289.513,185.718z M304.174,183.672l-171.41-97.678c0,0-18.221-9.106-19.443-37.662
			C112.1,19.778,90.217,7.286,89.09,7.286c-1.097,0-6.746-4.249-19.58-3.876c10.472,0.367,15.212,3.876,16.207,3.876
			c1.128,0,23.011,12.492,24.232,41.046c1.218,28.556,19.442,37.662,19.442,37.662l171.41,97.678c0,0,18.08,11.031,2.787,31.152
			c-4.292,5.644-9.29,7.81-14.062,8.195c5.71,0.463,12.116-1.203,17.434-8.195C322.257,194.704,304.174,183.672,304.174,183.672z"/>
		<linearGradient id="SVGID_3_" gradientUnits="userSpaceOnUse" x1="172.814" y1="96.0737" x2="143.2965" y2="150.0487">
			<stop  offset="0" style="stop-color:#D7D5D8"/>
			<stop  offset="0.1695" style="stop-color:#D2D0D3"/>
			<stop  offset="0.3646" style="stop-color:#C4C3C5"/>
			<stop  offset="0.5724" style="stop-color:#ADACAE"/>
			<stop  offset="0.7874" style="stop-color:#8D8D8E"/>
			<stop  offset="1" style="stop-color:#666667"/>
		</linearGradient>
		<path fill="url(#SVGID_3_)" d="M304.17,183.677L132.761,86c0,0-18.224-9.11-19.442-37.663
			C112.098,19.783,90.211,7.292,89.087,7.292c-1.127,0-7.045-4.509-20.664-3.851C46.63,4.493,35.268,11.425,23.34,15.18
			c-11.929,3.759-9.626,9.658-9.626,9.658s48.134,9.971,49.166,9.971c1.033,0,1.599,1.596,1.599,1.596s1.785,5.824,3.662,8.924
			c1.876,3.102,1.69,4.508,1.69,4.508s-9.111,45.739-9.768,49.968c-0.659,4.225,1.221,3.758,1.221,3.758s40.198,7.983,43.957,8.547
			c3.754,0.561,5.539,2.16,5.539,2.16l163.805,103.032c0,0,19.422,14.564,32.375-2.475
			C322.252,194.708,304.17,183.677,304.17,183.677z M107.355,68.353l-6.805,31.598c-0.294,1.362-1.645,2.222-3.004,1.919
			L79.994,97.92c-1.359-0.305-2.232-1.67-1.942-3.031l6.822-32.157c0.286-1.36,1.628-2.198,2.977-1.862l17.582,4.396
			C106.784,65.605,107.646,66.995,107.355,68.353z M290.33,215.432c-8.693,0-14.899-5.36-14.899-14.054
			c0-8.692,7.05-15.741,15.743-15.741c8.694,0,13.516,6.202,13.516,14.896C304.689,207.287,297.479,215.432,290.33,215.432z"/>
		<linearGradient id="SVGID_4_" gradientUnits="userSpaceOnUse" x1="198.9634" y1="131.1528" x2="185.4692" y2="164.8883">
			<stop  offset="0" style="stop-color:#8C8B8C"/>
			<stop  offset="0.3122" style="stop-color:#878687"/>
			<stop  offset="0.6708" style="stop-color:#79797A"/>
			<stop  offset="1" style="stop-color:#666667"/>
		</linearGradient>
		<path fill="url(#SVGID_4_)" d="M267.129,203.125c0,0,2.438-16.14,14.723-23.042L125.431,89.438c0,0-7.309-3.146-11.877,1.421
			c-4.567,4.568-4.263,13.094-0.51,15.428C116.802,108.622,267.129,203.125,267.129,203.125z"/>
		<linearGradient id="SVGID_5_" gradientUnits="userSpaceOnUse" x1="55.3828" y1="69.0352" x2="66.0004" y2="79.6531">
			<stop  offset="0" style="stop-color:#D7D5D8"/>
			<stop  offset="0.1695" style="stop-color:#D2D0D3"/>
			<stop  offset="0.3646" style="stop-color:#C4C3C5"/>
			<stop  offset="0.5724" style="stop-color:#ADACAE"/>
			<stop  offset="0.7874" style="stop-color:#8D8D8E"/>
			<stop  offset="1" style="stop-color:#666667"/>
		</linearGradient>
		<polygon fill="url(#SVGID_5_)" points="54.64,73.853 64.479,68.833 61.421,84.372 		"/>
		<linearGradient id="SVGID_6_" gradientUnits="userSpaceOnUse" x1="-13.2021" y1="57.2827" x2="79.5646" y2="101.1361">
			<stop  offset="0" style="stop-color:#D7D5D8"/>
			<stop  offset="0.1695" style="stop-color:#D2D0D3"/>
			<stop  offset="0.3646" style="stop-color:#C4C3C5"/>
			<stop  offset="0.5724" style="stop-color:#ADACAE"/>
			<stop  offset="0.7874" style="stop-color:#8D8D8E"/>
			<stop  offset="1" style="stop-color:#666667"/>
		</linearGradient>
		<path fill="url(#SVGID_6_)" d="M51.922,72.495l8.833,13.916l-2.462,13.18c0,0-0.388,2.539-3.788,1.994
			c-3.398-0.545-36.219-4.944-50.165-37.38c-0.733-1.715,1.795-2.078,6.552,0.1C12.004,64.813,51.922,72.495,51.922,72.495z"/>
		
			<linearGradient id="SVGID_7_" gradientUnits="userSpaceOnUse" x1="77.0542" y1="78.1689" x2="81.6914" y2="79.4336" gradientTransform="matrix(0.9987 0.0063 0.0063 0.9691 -0.0562 1.2478)">
			<stop  offset="0" style="stop-color:#B2B1B1"/>
			<stop  offset="0.2117" style="stop-color:#ADACAC"/>
			<stop  offset="0.4553" style="stop-color:#9F9F9F"/>
			<stop  offset="0.7147" style="stop-color:#888888"/>
			<stop  offset="0.9835" style="stop-color:#686869"/>
			<stop  offset="1" style="stop-color:#666667"/>
		</linearGradient>
		<path fill="url(#SVGID_7_)" d="M74.39,94.72c-0.086,0.442-0.075,0.816,0.033,0.841l2.977,0.602
			c0.107,0.021,0.264-0.321,0.355-0.765L84.631,61.4c0.091-0.443,0.077-0.817-0.03-0.839l-2.979-0.601
			c-0.105-0.021-0.264,0.319-0.354,0.761L74.39,94.72z"/>
		<path opacity="0.75" fill="#808080" d="M51.922,72.495c0,0-1.151-0.224-3.066-0.59l6.099,14.069l-3.022,15.177
			c1.254,0.24,2.146,0.368,2.573,0.434c3.399,0.545,3.788-1.994,3.788-1.994l2.462-13.18L51.922,72.495z"/>
		<path fill="#666667" d="M276.325,176.881v0.03h-0.003l1.594,0.925c-11.481,6.448-14.357,20.965-14.684,22.837
			c2.507,1.577,3.897,2.452,3.897,2.452s2.438-16.14,14.723-23.042L276.325,176.881z M263.232,200.673
			c-0.024,0.128-0.036,0.202-0.036,0.202L263.232,200.673z"/>
		<path fill="#666667" d="M111.356,94.086c-2.089,4.582-1.294,10.346,1.691,12.2c3.755,2.335,154.086,96.839,154.086,96.839
			s0.156-1.037,0.59-2.689c-6.846-4.303-150.166-94.396-153.833-96.678C111.438,102.235,110.469,98.069,111.356,94.086z"/>
		<g>
			<defs>
				<polygon id="SVGID_8_" points="87.686,60.456 79.815,97.562 102.302,102.621 110.175,66.075 				"/>
			</defs>
			<clipPath id="SVGID_9_">
				<use xlink:href="#SVGID_8_"  overflow="visible"/>
			</clipPath>
			<g clip-path="url(#SVGID_9_)">
				
					<linearGradient id="SVGID_10_" gradientUnits="userSpaceOnUse" x1="93.501" y1="136.1743" x2="108.9374" y2="136.1743" gradientTransform="matrix(0.7157 0.2747 -0.2083 0.7999 49.7481 -72.7089)">
					<stop  offset="0" style="stop-color:#F2F2F2"/>
					<stop  offset="0.0633" style="stop-color:#EDEDED"/>
					<stop  offset="0.1362" style="stop-color:#DFDFDF"/>
					<stop  offset="0.2139" style="stop-color:#C8C8C9"/>
					<stop  offset="0.2949" style="stop-color:#A8A8A8"/>
					<stop  offset="0.3776" style="stop-color:#7F7F80"/>
					<stop  offset="0.4213" style="stop-color:#666667"/>
					<stop  offset="1" style="stop-color:#E6E6E6"/>
				</linearGradient>
				<path fill="url(#SVGID_10_)" d="M105.602,64.025c0.141,0.777-0.127,1.478-0.593,1.562l-16.585,3.017
					c-0.472,0.087-0.968-0.476-1.108-1.256l-0.253-1.408c-0.143-0.775,0.124-1.478,0.593-1.563l16.582-3.014
					c0.469-0.086,0.965,0.474,1.105,1.251L105.602,64.025z"/>
				
					<linearGradient id="SVGID_11_" gradientUnits="userSpaceOnUse" x1="93.499" y1="143.9282" x2="108.9364" y2="143.9282" gradientTransform="matrix(0.7157 0.2747 -0.2083 0.7999 49.7481 -72.7089)">
					<stop  offset="0" style="stop-color:#F2F2F2"/>
					<stop  offset="0.0633" style="stop-color:#EDEDED"/>
					<stop  offset="0.1362" style="stop-color:#DFDFDF"/>
					<stop  offset="0.2139" style="stop-color:#C8C8C9"/>
					<stop  offset="0.2949" style="stop-color:#A8A8A8"/>
					<stop  offset="0.3776" style="stop-color:#7F7F80"/>
					<stop  offset="0.4213" style="stop-color:#666667"/>
					<stop  offset="1" style="stop-color:#E6E6E6"/>
				</linearGradient>
				<path fill="url(#SVGID_11_)" d="M103.985,70.228c0.143,0.778-0.125,1.477-0.593,1.563L86.81,74.805
					c-0.469,0.089-0.965-0.475-1.105-1.251l-0.26-1.408c-0.14-0.778,0.124-1.48,0.596-1.566l16.582-3.017
					c0.47-0.083,0.965,0.479,1.108,1.256L103.985,70.228z"/>
				
					<linearGradient id="SVGID_12_" gradientUnits="userSpaceOnUse" x1="93.502" y1="151.687" x2="108.9381" y2="151.687" gradientTransform="matrix(0.7157 0.2747 -0.2083 0.7999 49.7481 -72.7089)">
					<stop  offset="0" style="stop-color:#F2F2F2"/>
					<stop  offset="0.0633" style="stop-color:#EDEDED"/>
					<stop  offset="0.1362" style="stop-color:#DFDFDF"/>
					<stop  offset="0.2139" style="stop-color:#C8C8C9"/>
					<stop  offset="0.2949" style="stop-color:#A8A8A8"/>
					<stop  offset="0.3776" style="stop-color:#7F7F80"/>
					<stop  offset="0.4213" style="stop-color:#666667"/>
					<stop  offset="1" style="stop-color:#E6E6E6"/>
				</linearGradient>
				<path fill="url(#SVGID_12_)" d="M102.372,76.434c0.141,0.777-0.126,1.478-0.598,1.564l-16.582,3.015
					c-0.469,0.085-0.965-0.476-1.105-1.255l-0.256-1.406c-0.14-0.78,0.127-1.479,0.596-1.567l16.582-3.015
					c0.469-0.086,0.965,0.479,1.105,1.254L102.372,76.434z"/>
				
					<linearGradient id="SVGID_13_" gradientUnits="userSpaceOnUse" x1="93.501" y1="159.4458" x2="108.9377" y2="159.4458" gradientTransform="matrix(0.7157 0.2747 -0.2083 0.7999 49.7481 -72.7089)">
					<stop  offset="0" style="stop-color:#F2F2F2"/>
					<stop  offset="0.0633" style="stop-color:#EDEDED"/>
					<stop  offset="0.1362" style="stop-color:#DFDFDF"/>
					<stop  offset="0.2139" style="stop-color:#C8C8C9"/>
					<stop  offset="0.2949" style="stop-color:#A8A8A8"/>
					<stop  offset="0.3776" style="stop-color:#7F7F80"/>
					<stop  offset="0.4213" style="stop-color:#666667"/>
					<stop  offset="1" style="stop-color:#E6E6E6"/>
				</linearGradient>
				<path fill="url(#SVGID_13_)" d="M100.754,82.637c0.14,0.781-0.124,1.481-0.593,1.564L83.58,87.22
					c-0.472,0.085-0.965-0.478-1.108-1.257l-0.256-1.408c-0.141-0.777,0.124-1.477,0.592-1.563l16.583-3.015
					c0.472-0.086,0.968,0.475,1.108,1.252L100.754,82.637z"/>
				
					<linearGradient id="SVGID_14_" gradientUnits="userSpaceOnUse" x1="93.5015" y1="167.1997" x2="108.9382" y2="167.1997" gradientTransform="matrix(0.7157 0.2747 -0.2083 0.7999 49.7481 -72.7089)">
					<stop  offset="0" style="stop-color:#F2F2F2"/>
					<stop  offset="0.0633" style="stop-color:#EDEDED"/>
					<stop  offset="0.1362" style="stop-color:#DFDFDF"/>
					<stop  offset="0.2139" style="stop-color:#C8C8C9"/>
					<stop  offset="0.2949" style="stop-color:#A8A8A8"/>
					<stop  offset="0.3776" style="stop-color:#7F7F80"/>
					<stop  offset="0.4213" style="stop-color:#666667"/>
					<stop  offset="1" style="stop-color:#E6E6E6"/>
				</linearGradient>
				<path fill="url(#SVGID_14_)" d="M99.139,88.843c0.143,0.778-0.126,1.477-0.596,1.562l-16.582,3.018
					c-0.469,0.083-0.965-0.477-1.105-1.254L80.6,90.762c-0.143-0.782,0.127-1.481,0.593-1.566l16.584-3.017
					c0.469-0.083,0.962,0.48,1.105,1.256L99.139,88.843z"/>
				
					<linearGradient id="SVGID_15_" gradientUnits="userSpaceOnUse" x1="93.5029" y1="174.9575" x2="108.9394" y2="174.9575" gradientTransform="matrix(0.7157 0.2747 -0.2083 0.7999 49.7481 -72.7089)">
					<stop  offset="0" style="stop-color:#F2F2F2"/>
					<stop  offset="0.0633" style="stop-color:#EDEDED"/>
					<stop  offset="0.1362" style="stop-color:#DFDFDF"/>
					<stop  offset="0.2139" style="stop-color:#C8C8C9"/>
					<stop  offset="0.2949" style="stop-color:#A8A8A8"/>
					<stop  offset="0.3776" style="stop-color:#7F7F80"/>
					<stop  offset="0.4213" style="stop-color:#666667"/>
					<stop  offset="1" style="stop-color:#E6E6E6"/>
				</linearGradient>
				<path fill="url(#SVGID_15_)" d="M97.524,95.05c0.14,0.775-0.125,1.477-0.594,1.563l-16.582,3.014
					c-0.474,0.088-0.968-0.474-1.11-1.253l-0.253-1.407c-0.141-0.779,0.124-1.479,0.592-1.568l16.583-3.013
					c0.469-0.086,0.964,0.476,1.108,1.255L97.524,95.05z"/>
			</g>
		</g>
		<path fill="#F0F0F0" d="M87.399,9.82c-1.126,0-7.042-4.507-20.661-3.851C55.085,6.536,46.419,8.776,39.05,11.314
			c10.853,3.629,31.355,0.52,43.521,5.635c14.295,6.013,20.017,20.451,28.353,27.216C106.945,20.357,88.436,9.82,87.399,9.82z"/>
		<linearGradient id="SVGID_16_" gradientUnits="userSpaceOnUse" x1="24.7417" y1="83.1655" x2="48.3565" y2="82.3221">
			<stop  offset="0" style="stop-color:#C7C6C8"/>
			<stop  offset="0.2952" style="stop-color:#C2C1C3"/>
			<stop  offset="0.6348" style="stop-color:#B4B3B5"/>
			<stop  offset="0.9952" style="stop-color:#9D9C9E"/>
			<stop  offset="1" style="stop-color:#9D9C9E"/>
		</linearGradient>
		<path fill="url(#SVGID_16_)" d="M32.24,72.881c-9.726-1.904-17.302-6.423-17.835-6.668c-4.476-2.047-6.506-1.815-6.164-0.097
			c3.732,18.682,33.741,30.194,43.693,35.034C52.052,93.537,33.315,81.207,32.24,72.881z"/>
	</g>
</g>
</svg>
